<?xml version="1.0" standalone="no"?>
<!DOCTYPE svg PUBLIC "-//W3C//DTD SVG 20010904//EN"
 "http://www.w3.org/TR/2001/REC-SVG-20010904/DTD/svg10.dtd">
<svg version="1.0" xmlns="http://www.w3.org/2000/svg"
 width="360.000000pt" height="280.000000pt" viewBox="0 0 360.000000 280.000000"
 preserveAspectRatio="xMidYMid meet">

<g transform="translate(0.000000,280.000000) scale(0.100000,-0.100000)"
fill="#000000" stroke="none">
<path d="M245 2770 c3 -5 13 -10 21 -10 8 0 14 5 14 10 0 6 -9 10 -21 10 -11
0 -17 -4 -14 -10z"/>
<path d="M296 2723 c4 -32 11 -66 15 -75 5 -9 9 -43 9 -75 0 -47 4 -61 20 -71
20 -12 20 -10 20 133 0 118 -3 145 -14 145 -8 0 -17 -6 -19 -12 -4 -10 -6 -10
-6 0 -1 6 -8 12 -16 12 -13 0 -14 -10 -9 -57z"/>
<path d="M380 2621 l0 -159 -185 124 c-101 68 -187 124 -190 124 -2 0 -5 -603
-5 -1340 l0 -1340 329 0 c181 1 331 4 333 8 8 19 132 62 176 61 l47 0 -70 -24
c-38 -13 -78 -24 -87 -25 -9 0 -20 -4 -23 -10 -4 -7 67 -9 207 -8 117 0 198 3
181 5 -18 2 -33 8 -33 13 0 10 41 25 55 21 6 -2 26 -3 45 -2 19 1 58 -1 85 -5
47 -6 49 -7 25 -18 -21 -9 -6 -12 85 -14 116 -3 160 2 150 18 -4 7 -13 6 -25
0 -10 -5 -38 -10 -61 -10 l-42 0 26 20 c27 21 101 26 182 12 l40 -7 -25 -18
c-24 -16 -8 -17 370 -15 310 2 394 6 393 16 -2 6 4 12 13 12 8 0 12 5 9 10 -4
7 6 10 28 8 34 -2 45 -23 22 -40 -5 -4 232 -8 528 -8 524 0 537 0 557 20 12
12 20 33 20 55 0 32 -3 35 -29 35 -18 0 -40 11 -59 30 l-32 30 60 0 60 0 0 39
c0 31 -4 41 -20 46 -11 4 -18 11 -15 16 4 5 0 9 -7 10 -66 2 -196 9 -208 10
-8 1 -26 -2 -40 -6 -38 -11 -147 -18 -172 -12 -14 4 -32 24 -47 52 -15 29 -30
45 -43 45 -18 0 -18 -2 2 -41 12 -23 19 -47 16 -55 -3 -8 -1 -14 4 -14 6 0 10
-7 10 -15 0 -11 -12 -15 -47 -15 -27 0 -59 -3 -72 -7 -14 -3 -22 -2 -18 3 3 5
-6 14 -19 21 -24 11 -24 10 -18 -27 l6 -38 -80 -4 c-44 -2 -78 0 -75 5 2 4 -2
7 -11 7 -8 0 -22 3 -32 7 -12 4 -15 3 -10 -5 12 -20 -18 -13 -36 8 -15 16 -29
19 -98 18 -45 0 -85 3 -91 9 -7 7 -3 22 11 47 20 32 35 41 65 37 6 -1 2 5 -8
13 -15 11 -16 18 -8 35 8 14 8 22 0 26 -6 4 -11 5 -12 4 -2 -5 -18 -29 -54
-86 -23 -35 -33 -42 -66 -45 -22 -2 -46 2 -56 9 -9 7 -26 13 -38 13 -12 0 -23
4 -25 9 -5 13 -168 25 -168 11 0 -6 4 -9 9 -5 5 3 12 1 16 -5 3 -5 33 -10 65
-10 55 0 85 -12 58 -23 -12 -5 27 -9 116 -12 34 -1 48 -24 19 -31 -22 -6 -50
-44 -32 -44 6 0 2 -14 -9 -32 l-21 -33 -78 5 c-76 4 -112 4 -163 -1 -14 -2
-63 -2 -109 -1 l-84 2 19 21 c18 20 25 21 117 15 95 -7 99 -6 128 19 17 14 35
22 41 19 5 -3 18 3 29 15 11 12 15 21 8 21 -6 0 -9 6 -6 14 5 12 -10 15 -71
18 -42 2 -81 0 -86 -4 -6 -4 2 -8 16 -8 47 0 91 -12 76 -21 -21 -14 -96 -10
-127 5 -15 8 -40 16 -54 18 -14 2 -29 7 -33 11 -4 4 -32 7 -63 7 -41 0 -52 3
-43 12 6 6 26 11 43 10 18 0 37 5 43 13 10 12 77 20 221 24 16 1 14 5 -13 21
-21 13 -50 20 -85 20 l-52 0 30 21 30 21 -44 -5 c-31 -4 -40 -3 -30 4 10 7 1
9 -31 7 -25 -1 -48 -7 -52 -13 -8 -11 -251 -18 -308 -9 -30 6 -32 8 -15 14 11
5 38 10 60 11 84 4 -112 17 -242 16 -72 -1 -129 1 -126 6 2 4 -29 7 -69 7 -70
0 -318 13 -483 26 -44 3 -82 9 -85 13 -3 4 -18 8 -33 9 -33 2 -47 9 -47 23 0
6 9 5 21 -2 30 -15 199 -12 276 6 74 17 167 20 143 5 -8 -5 -33 -10 -55 -11
l-40 -1 29 -10 c21 -8 43 -7 78 1 63 14 118 14 118 0 0 -8 38 -9 133 -5 93 5
128 4 117 -3 -11 -8 10 -11 77 -11 78 0 91 2 87 15 -4 8 -20 16 -38 17 -23 1
-18 3 19 9 42 6 39 6 -20 3 -38 -2 -94 -7 -124 -10 -36 -4 -51 -3 -47 4 8 13
-72 23 -169 23 -38 -1 -97 1 -130 2 -33 2 -79 5 -102 5 -36 2 -42 6 -51 31 -6
16 -9 49 -7 75 1 25 -1 46 -5 46 -4 0 -8 30 -9 68 -2 87 -2 70 0 207 1 67 -1
130 -5 142 -4 11 -2 32 3 47 7 16 7 26 1 26 -5 0 -6 7 -3 17 4 11 3 14 -5 9
-7 -4 -12 -1 -12 8 0 9 5 16 10 16 15 0 12 47 -2 53 -8 3 -5 6 5 6 10 1 15 6
12 11 -4 6 -16 8 -27 4 -13 -4 -18 -2 -14 4 3 6 2 22 -4 37 -10 25 -9 27 11
22 15 -4 19 -2 15 10 -3 8 -6 18 -6 21 0 4 -5 0 -11 -8 -8 -12 -9 -11 -7 5 3
14 11 19 27 17 19 -2 21 1 15 20 -4 13 -8 32 -10 43 -1 11 -5 28 -9 38 -4 9
-3 17 3 17 13 0 12 40 -2 58 -6 8 -6 16 0 20 16 12 16 42 -1 42 -8 0 -15 4
-15 10 0 5 7 7 15 4 20 -8 19 6 -2 22 -17 13 -17 13 0 14 18 0 23 15 7 25 -10
6 -8 47 5 76 3 10 1 20 -5 24 -9 6 -9 9 0 15 8 5 9 13 4 21 -10 16 -13 59 -4
59 11 0 9 45 -3 52 -9 6 -8 8 2 8 11 0 11 3 0 17 -8 10 -10 18 -4 20 6 2 9 30
7 66 -6 124 -4 157 7 170 6 8 9 16 6 19 -8 8 -23 98 -16 98 3 0 6 30 6 67 0
49 3 67 13 65 7 -1 12 8 12 20 0 17 -3 19 -9 9 -13 -21 -18 -1 -13 56 2 29 8
50 13 47 5 -3 9 20 9 50 l0 56 -225 0 -225 0 0 -159z m53 -78 c-5 -12 -2 -15
9 -10 12 4 14 1 11 -14 -3 -10 -1 -19 5 -19 6 0 9 -6 8 -12 -6 -36 -18 -54
-35 -54 -11 0 -17 5 -14 10 4 5 5 36 4 69 -1 38 2 57 8 53 6 -4 7 -14 4 -23z
m74 -114 c-10 -17 -9 -23 10 -37 23 -17 23 -17 -17 -17 -25 -1 -40 4 -40 11 0
7 8 10 21 7 19 -5 20 -4 10 15 -6 11 -16 22 -23 25 -7 2 -10 8 -6 12 4 4 14 2
23 -5 13 -11 14 -10 9 4 -5 12 -2 15 9 10 13 -5 14 -9 4 -25z m-147 -15 c0 -6
7 -17 15 -24 13 -11 14 -10 9 5 -5 13 -3 16 7 13 8 -3 13 -12 11 -22 -2 -9 4
-16 12 -16 8 0 26 -11 39 -24 13 -12 28 -25 34 -27 6 -2 13 -33 16 -69 2 -37
9 -66 16 -68 8 -3 7 -7 -3 -16 -17 -12 -11 -56 8 -56 6 0 6 -4 -3 -9 -10 -6
-11 -13 -2 -29 14 -26 14 -45 1 -37 -6 4 -5 -5 2 -20 9 -21 9 -28 -1 -34 -10
-6 -10 -10 -2 -16 16 -9 14 -715 -1 -715 -6 0 -5 -7 3 -17 11 -13 11 -17 1
-20 -6 -3 -9 -10 -5 -16 13 -21 13 -67 0 -67 -8 0 -8 -3 2 -9 8 -5 11 -16 8
-26 -4 -9 -12 -13 -18 -9 -8 4 -9 0 -4 -15 5 -16 3 -20 -9 -15 -9 3 -16 10
-16 15 0 5 -5 9 -11 9 -8 0 -8 -4 0 -14 9 -11 10 -20 1 -35 -8 -16 -8 -21 1
-21 7 0 10 -2 7 -5 -8 -8 -38 6 -38 17 0 5 5 6 10 3 6 -3 10 1 10 10 0 12 -5
15 -16 11 -9 -4 -24 0 -33 8 -11 9 -23 11 -39 5 -22 -8 -22 -10 -6 -34 l17
-26 -27 11 c-18 6 -25 6 -21 0 3 -6 -1 -10 -9 -10 -9 0 -16 5 -16 11 0 5 -4 7
-10 4 -6 -3 -10 1 -10 9 0 9 6 16 13 16 9 0 12 11 9 35 -2 19 -8 35 -13 35
-14 0 -11 28 4 34 10 5 10 7 0 12 -18 8 -18 154 0 155 10 0 9 2 0 6 -18 7 -18
153 0 154 9 0 9 2 0 6 -16 6 -18 143 -3 143 6 0 10 5 10 11 0 5 -5 7 -10 4 -7
-4 -10 82 -9 252 1 142 3 250 6 241 12 -47 18 -5 17 127 -1 137 0 145 18 140
10 -4 18 -1 18 5 0 6 -4 9 -9 6 -5 -3 -11 0 -14 7 -3 8 3 13 14 13 11 0 19 -6
19 -12z m120 1 c0 -1 -11 -5 -25 -7 -20 -4 -23 -2 -14 8 8 10 39 10 39 -1z
m-184 -19 c3 -7 -5 -25 -18 -39 l-23 -24 -2 29 c-2 26 0 28 14 17 14 -12 15
-11 9 9 -8 24 11 32 20 8z m1 -93 c0 -29 -3 -40 -7 -28 -7 19 -7 19 -17 0 -9
-16 -11 -14 -9 15 1 18 7 35 14 38 7 2 10 8 6 13 -3 5 -1 9 5 9 5 0 9 -21 8
-47z m-243 -2 c-2 -3 -12 3 -22 13 -16 17 -16 18 5 5 12 -7 20 -15 17 -18z
m676 9 c13 -9 13 -10 0 -10 -8 0 -22 5 -30 10 -13 9 -13 10 0 10 8 0 22 -5 30
-10z m-480 -15 c0 -8 -4 -15 -10 -15 -5 0 -7 7 -4 15 4 8 8 15 10 15 2 0 4 -7
4 -15z m-53 -58 c28 -15 54 -30 56 -34 8 -13 10 -261 6 -768 -1 -258 -6 -432
-9 -385 -3 47 -6 324 -6 617 l1 531 -80 42 c-44 24 -84 47 -90 52 -11 10 45
-15 122 -55z m583 -327 c0 -5 -2 -10 -4 -10 -3 0 -8 5 -11 10 -3 6 -1 10 4 10
6 0 11 -4 11 -10z m5 -110 c3 -5 1 -10 -4 -10 -6 0 -11 5 -11 10 0 6 2 10 4
10 3 0 8 -4 11 -10z m10 -320 c3 -5 1 -10 -4 -10 -6 0 -11 5 -11 10 0 6 2 10
4 10 3 0 8 -4 11 -10z m-15 -260 c0 -5 -2 -10 -4 -10 -3 0 -8 5 -11 10 -3 6
-1 10 4 10 6 0 11 -4 11 -10z m-60 -111 c27 -7 18 -8 -42 -5 -42 3 -85 9 -95
16 -14 8 -5 9 42 5 33 -4 76 -11 95 -16z m90 -18 c0 -5 -12 -6 -27 -3 -24 5
-25 6 -8 12 21 8 35 4 35 -9z m-410 -65 c-5 -5 -15 -2 -24 7 -15 14 -14 16 2
19 20 5 35 -13 22 -26z m40 -96 c8 -5 11 -10 5 -10 -5 0 -17 5 -25 10 -8 5
-10 10 -5 10 6 0 17 -5 25 -10z m515 -470 c4 -6 -9 -10 -32 -9 -38 1 -38 1 -8
9 17 4 31 8 32 9 1 0 5 -3 8 -9z m-202 -7 c-7 -2 -19 -2 -25 0 -7 3 -2 5 12 5
14 0 19 -2 13 -5z m444 -9 c-3 -3 -12 -4 -19 -1 -8 3 -5 6 6 6 11 1 17 -2 13
-5z m-207 -24 c-14 -4 -36 -8 -50 -8 -23 -1 -23 0 -5 8 11 5 34 8 50 8 29 0
29 0 5 -8z m405 0 c-11 -5 -27 -9 -35 -9 -13 -1 -13 0 0 9 8 5 24 9 35 9 l20
0 -20 -9z m-445 -29 c0 -12 -47 -20 -73 -13 -20 5 -20 6 -1 13 27 11 74 11 74
0z m300 -17 c-38 -9 -41 -12 -20 -16 22 -4 20 -6 -18 -16 -28 -9 -48 -10 -60
-3 -19 11 -22 9 68 39 30 10 59 16 65 13 5 -3 -10 -10 -35 -17z m-531 12 c-2
-2 -24 -6 -49 -9 -30 -4 -38 -3 -25 3 19 8 83 14 74 6z m1141 -6 c-13 -9 -13
-10 0 -10 13 0 13 -1 0 -10 -23 -15 -157 -13 -143 1 13 13 71 26 123 28 26 0
31 -2 20 -9z m-745 -14 c12 -12 11 -15 -8 -20 -36 -9 -89 -7 -82 4 3 6 0 11
-7 11 -15 2 38 16 65 18 10 0 25 -5 32 -13z m461 7 c-4 -5 -22 -13 -39 -20
l-32 -11 44 -1 c37 -1 42 -3 31 -16 -19 -22 -98 -17 -84 6 3 5 -7 9 -22 9 -32
0 -25 10 19 26 36 13 94 18 83 7z m117 0 c-7 -2 -21 -2 -30 0 -10 3 -4 5 12 5
17 0 24 -2 18 -5z m-250 -10 c-7 -2 -19 -2 -25 0 -7 3 -2 5 12 5 14 0 19 -2
13 -5z m-588 -23 c-16 -4 -43 -8 -60 -8 -25 -1 -27 1 -10 8 11 5 38 8 60 8 38
0 39 -1 10 -8z m535 0 c11 -7 -1 -10 -42 -10 -31 0 -60 5 -63 10 -8 13 85 13
105 0z m-683 -16 c-3 -3 -12 -4 -19 -1 -8 3 -5 6 6 6 11 1 17 -2 13 -5z m343
-4 c-8 -5 -22 -10 -30 -10 -13 0 -13 1 0 10 8 5 22 10 30 10 13 0 13 -1 0 -10z
m690 -18 c0 -15 -77 -42 -126 -44 l-49 -1 44 -6 45 -6 -50 -26 c-27 -15 -60
-26 -74 -24 -14 1 -54 3 -90 4 l-65 2 60 29 c33 17 68 30 77 30 9 0 20 5 23
10 3 6 15 10 26 10 11 0 18 4 15 9 -4 5 0 12 6 14 21 9 158 8 158 -1z m-195
-12 c-27 -12 -77 -12 -95 0 -10 7 5 10 50 9 45 0 59 -3 45 -9z m1752 -16 c-3
-3 -12 -4 -19 -1 -8 3 -5 6 6 6 11 1 17 -2 13 -5z m-2511 -29 c-4 -10 1 -15
17 -16 17 0 14 -3 -13 -13 -19 -7 -52 -16 -72 -20 -32 -6 -37 -5 -31 9 4 11
14 15 29 12 14 -2 25 2 28 9 4 10 -3 14 -20 14 -14 0 -22 4 -19 10 3 6 24 10
47 10 32 0 39 -3 34 -15z m2472 -1 c34 -5 45 -23 15 -25 -16 0 -16 -1 1 -8 18
-7 18 -8 2 -14 -32 -12 -104 -8 -120 8 -8 8 -21 15 -28 15 -14 0 -38 19 -38
30 0 6 115 2 168 -6z m266 5 c-7 -13 -121 -11 -129 1 -4 7 18 10 64 9 39 -1
68 -5 65 -10z m-2196 -29 c17 0 32 -4 32 -8 0 -5 -36 -25 -80 -45 -68 -31 -92
-37 -148 -37 -125 0 -126 8 -11 56 76 32 113 42 139 39 19 -3 50 -5 68 -5z
m451 -8 l53 -7 -42 -27 c-44 -30 -99 -35 -185 -20 l-40 8 25 16 c65 41 78 43
189 30z m628 2 c-3 -3 -12 -4 -19 -1 -8 3 -5 6 6 6 11 1 17 -2 13 -5z m-1390
-19 c2 -1 -26 -13 -61 -28 -58 -24 -72 -26 -150 -20 -48 3 -85 8 -83 10 2 2
24 6 48 9 24 3 58 12 74 19 17 8 41 15 55 17 22 3 111 -2 117 -7z m1975 9 c24
-4 35 -11 31 -19 -6 -17 -93 -9 -132 11 -26 14 -25 14 19 14 25 0 62 -3 82 -6z
m-479 -40 c26 -5 37 -12 37 -24 0 -33 -26 -43 -100 -38 -38 3 -67 1 -64 -3 8
-14 -10 -10 -32 6 -12 9 -14 14 -6 15 7 0 11 4 8 9 -4 5 -3 16 0 25 7 17 83
22 157 10z m305 -10 c28 -3 52 -10 52 -16 0 -7 -33 -9 -100 -6 -101 5 -117 9
-106 26 5 9 31 8 154 -4z m465 4 c15 -11 8 -13 -41 -16 -39 -1 -64 3 -78 13
-17 13 -14 14 42 15 33 0 68 -6 77 -12z m-2810 -41 c3 -8 -3 -13 -14 -13 -19
0 -24 8 -12 19 10 11 20 8 26 -6z m2383 -15 c30 -30 5 -42 -86 -42 -76 0 -90
11 -48 39 38 24 111 26 134 3z m238 -21 c16 -4 31 -12 34 -19 3 -9 -19 -12
-80 -12 -115 0 -158 8 -158 30 0 16 9 17 88 13 48 -3 100 -8 116 -12z m171 9
c4 -6 -6 -7 -27 -3 -44 8 -48 13 -10 13 17 0 34 -4 37 -10z"/>
<path d="M430 2508 c0 -9 5 -20 10 -23 13 -8 13 5 0 25 -8 13 -10 13 -10 -2z"/>
<path d="M301 2054 c0 -11 3 -14 6 -6 3 7 2 16 -1 19 -3 4 -6 -2 -5 -13z"/>
<path d="M301 2004 c0 -11 3 -14 6 -6 3 7 2 16 -1 19 -3 4 -6 -2 -5 -13z"/>
<path d="M490 1280 c0 -5 5 -10 11 -10 5 0 7 5 4 10 -3 6 -8 10 -11 10 -2 0
-4 -4 -4 -10z"/>
<path d="M358 1153 c-28 -7 -21 -21 7 -15 14 2 22 8 19 13 -3 5 -6 8 -7 8 -1
-1 -10 -3 -19 -6z"/>
<path d="M365 1100 c-3 -5 -1 -10 4 -10 6 0 11 5 11 10 0 6 -2 10 -4 10 -3 0
-8 -4 -11 -10z"/>
<path d="M420 1069 c0 -5 5 -7 10 -4 6 3 10 8 10 11 0 2 -4 4 -10 4 -5 0 -10
-5 -10 -11z"/>
<path d="M865 2770 c4 -6 11 -8 16 -5 14 9 11 15 -7 15 -8 0 -12 -5 -9 -10z"/>
<path d="M900 2758 c-2 -52 2 -318 5 -373 4 -102 3 -98 26 -92 16 4 45 -13
113 -66 50 -39 100 -80 110 -89 11 -10 24 -18 29 -18 6 0 16 -8 22 -17 12 -16
14 -14 20 19 4 20 4 41 0 47 -3 6 -1 11 4 11 6 0 11 8 12 18 0 13 3 11 10 -6
11 -29 25 -21 34 18 12 55 25 42 26 -27 1 -37 4 -93 9 -123 6 -45 7 -31 9 73
1 138 7 149 50 103 28 -30 29 -37 30 -170 1 -60 3 -107 6 -104 3 3 6 149 7
324 1 176 4 294 8 264 6 -53 7 -53 10 -15 2 22 2 50 1 63 -1 12 5 32 12 43 14
20 15 20 38 -13 l23 -33 -27 24 c-26 23 -27 24 -27 4 0 -11 9 -30 20 -43 21
-24 64 -81 106 -139 22 -32 24 -33 24 -12 0 19 3 21 14 12 7 -6 11 -22 9 -35
-4 -17 13 -46 64 -114 37 -49 72 -88 76 -85 5 3 4 10 -2 16 -15 15 -14 30 2
21 8 -6 8 -3 -1 9 -8 9 -17 15 -22 14 -10 -2 -110 133 -109 148 0 5 3 4 6 -2
2 -7 9 -13 14 -13 5 0 -10 28 -34 63 -24 34 -74 107 -112 162 -98 144 -107
155 -123 155 -12 0 -12 -3 -1 -17 12 -16 11 -16 -8 0 -12 10 -28 17 -37 15
-11 -2 -4 -18 30 -62 24 -33 44 -63 44 -68 0 -20 -19 -2 -65 62 l-50 69 -202
1 -203 0 0 -22z m530 -50 c15 -21 17 -28 6 -19 -16 13 -41 51 -33 51 2 0 14
-15 27 -32z m-503 -281 c-1 -45 -3 -5 -3 88 0 94 2 130 3 82 2 -48 2 -125 0
-170z m613 133 c12 -16 19 -30 16 -30 -2 0 -14 14 -26 30 -12 17 -19 30 -16
30 2 0 14 -13 26 -30z m50 -70 c12 -16 19 -30 16 -30 -2 0 -14 14 -26 30 -12
17 -19 30 -16 30 2 0 14 -13 26 -30z m-220 -157 c0 -8 -5 -11 -12 -7 -7 4 -4
-4 7 -17 55 -67 60 -107 6 -55 -31 30 -39 45 -38 71 2 25 6 31 20 27 9 -2 17
-11 17 -19z"/>
<path d="M1457 2767 c42 -70 117 -165 126 -160 6 3 7 1 3 -5 -6 -11 68 -132
124 -202 20 -25 20 -25 0 20 -17 39 -20 67 -20 202 l0 156 -121 1 c-98 1 -119
-1 -112 -12z m210 -29 c1 -7 4 -74 8 -148 l8 -135 -37 54 c-33 49 -36 58 -36
128 0 47 4 72 10 68 6 -3 10 3 10 14 0 11 8 22 18 24 9 3 17 5 18 6 0 0 1 -5
1 -11z m-98 -75 c0 -25 -1 -26 -9 -8 -12 27 -12 35 0 35 6 0 10 -12 9 -27z"/>
<path d="M1700 2776 c0 -2 11 -24 25 -47 20 -36 25 -58 25 -118 0 -41 3 -72 6
-68 5 5 6 40 5 185 -1 28 -5 52 -9 52 -4 0 -6 -17 -5 -37 l4 -38 -21 38 c-18
32 -30 46 -30 33z"/>
<path d="M1806 2613 c3 -93 5 -246 4 -340 -2 -194 -9 -180 77 -164 26 5 89 14
138 21 50 6 107 13 129 17 l38 5 -4 207 c-2 113 -1 193 3 176 7 -30 7 -30 8
-3 1 23 7 28 36 34 35 6 59 24 33 24 -9 0 -9 3 2 10 10 6 11 10 3 10 -10 0
-13 24 -13 85 l0 85 -99 0 -100 0 -4 -27 -4 -28 -2 28 c-1 27 -1 27 -75 27
l-74 0 5 -40 c4 -26 2 -40 -6 -40 -6 0 -11 17 -11 40 l0 40 -45 0 -45 0 6
-167z m257 25 c3 -38 1 -68 -4 -68 -5 0 -9 35 -8 78 1 89 5 86 12 -10z m-153
-43 l0 -94 29 5 c39 8 49 -13 11 -21 -16 -4 -30 -11 -30 -16 0 -5 10 -5 24 1
21 8 26 6 32 -13 4 -12 2 -23 -5 -25 -6 -2 -11 -10 -11 -18 0 -8 -9 -14 -20
-14 -19 0 -20 -7 -20 -90 0 -113 -18 -119 -22 -7 l-3 82 -30 0 c-28 0 -30 3
-36 45 -8 61 -3 70 38 70 l36 0 -5 95 c-3 52 -1 95 3 95 5 0 9 -43 9 -95z
m120 49 c0 -8 -4 -12 -10 -9 -5 3 -10 10 -10 16 0 5 5 9 10 9 6 0 10 -7 10
-16z m10 -58 c0 -3 -4 -8 -10 -11 -5 -3 -10 -1 -10 4 0 6 5 11 10 11 6 0 10
-2 10 -4z m-80 -36 c0 -14 -7 -20 -22 -20 -20 0 -21 1 -3 20 10 11 20 20 22
20 1 0 3 -9 3 -20z m110 8 c0 -2 3 -84 6 -183 4 -135 2 -176 -6 -162 -6 10
-14 66 -17 125 l-6 108 -29 -4 c-25 -4 -29 -1 -26 14 2 12 13 20 31 22 23 3
27 8 28 35 1 18 1 35 0 40 0 4 4 7 9 7 6 0 10 -1 10 -2z m-184 -19 c9 -15 -14
-29 -46 -29 l-25 0 25 20 c29 23 36 24 46 9z m131 -45 c-3 -3 -12 -4 -19 -1
-8 3 -5 6 6 6 11 1 17 -2 13 -5z"/>
<path d="M2342 2750 c0 -14 2 -19 5 -12 2 6 2 18 0 25 -3 6 -5 1 -5 -13z"/>
<path d="M822 2640 c0 -14 2 -19 5 -12 2 6 2 18 0 25 -3 6 -5 1 -5 -13z"/>
<path d="M1467 2487 c5 -144 6 -161 10 -144 8 32 23 6 23 -39 0 -24 3 -44 8
-44 4 0 5 40 4 90 -3 77 -2 90 12 90 13 0 16 -14 16 -89 0 -50 3 -92 8 -94 4
-3 6 39 6 94 -2 98 -2 99 -40 149 -21 27 -41 50 -44 50 -3 0 -4 -28 -3 -63z"/>
<path d="M1758 2424 c-2 -74 0 -98 11 -107 12 -10 13 -9 7 2 -5 7 -8 56 -7
107 1 52 0 94 -3 94 -2 0 -6 -43 -8 -96z"/>
<path d="M1568 2343 c4 -132 9 -150 11 -43 1 86 3 93 16 76 8 -11 15 -15 15
-8 0 6 -10 23 -22 37 l-23 26 3 -88z"/>
<path d="M1444 2315 c0 -49 1 -71 3 -48 2 23 2 64 0 90 -2 26 -3 8 -3 -42z"/>
<path d="M2204 2280 c0 -69 1 -97 3 -62 2 34 2 90 0 125 -2 34 -3 6 -3 -63z"/>
<path d="M1702 2335 c38 -51 59 -73 42 -42 -21 36 -68 97 -75 97 -5 0 10 -25
33 -55z"/>
<path d="M1657 2289 c4 -13 8 -18 11 -10 2 7 -1 18 -6 23 -8 8 -9 4 -5 -13z"/>
<path d="M850 2275 c7 -8 23 -15 36 -15 14 0 22 -5 19 -12 -2 -7 21 -31 53
-52 31 -22 73 -52 92 -68 29 -23 322 -242 402 -300 13 -9 89 -66 170 -127 161
-120 168 -124 168 -117 0 2 -64 53 -142 112 -179 135 -263 199 -458 349 -86
66 -181 140 -213 164 -31 24 -57 50 -57 58 0 11 -7 14 -25 11 -14 -3 -28 -1
-31 3 -3 5 -10 9 -16 9 -7 0 -6 -6 2 -15z"/>
<path d="M1460 2254 c0 -4 8 -13 18 -20 10 -8 12 -13 5 -14 -28 0 -9 -29 73
-110 47 -47 99 -103 115 -124 24 -32 29 -35 29 -18 0 11 -5 24 -11 28 -8 4 -7
9 2 16 11 7 9 8 -6 6 -13 -2 -20 3 -20 14 0 9 -38 58 -85 108 -47 51 -89 99
-93 106 -8 14 -27 19 -27 8z m200 -219 c0 -5 -38 31 -85 80 -46 50 -84 94 -85
99 0 5 38 -31 85 -80 46 -49 84 -93 85 -99z"/>
<path d="M1661 2224 c0 -11 3 -14 6 -6 3 7 2 16 -1 19 -3 4 -6 -2 -5 -13z"/>
<path d="M1442 2160 c0 -19 2 -27 5 -17 2 9 2 25 0 35 -3 9 -5 1 -5 -18z"/>
<path d="M1740 2186 c0 -2 7 -9 15 -16 9 -7 15 -8 15 -2 0 5 -7 12 -15 16 -8
3 -15 4 -15 2z"/>
<path d="M1502 2110 c17 -16 33 -30 36 -30 3 0 -7 14 -23 30 -16 17 -32 30
-37 30 -4 0 6 -13 24 -30z"/>
<path d="M2153 2113 c9 -2 25 -2 35 0 9 3 1 5 -18 5 -19 0 -27 -2 -17 -5z"/>
<path d="M2060 2105 c-8 -2 -67 -11 -130 -20 l-115 -16 3 -232 c2 -127 4 -233
6 -234 2 -2 41 1 87 6 l84 8 -67 2 c-37 0 -69 5 -72 10 -6 10 23 15 197 32
l119 12 -8 46 c-4 25 -7 95 -5 155 l2 108 -43 -6 c-90 -12 -270 -27 -275 -23
-2 3 23 15 56 28 34 12 60 23 59 25 -2 1 -23 -2 -48 -6 -65 -13 -87 -13 -73 1
6 6 9 17 7 24 -3 8 38 20 135 38 76 15 149 27 162 28 23 0 23 1 4 9 -20 9 -56
11 -85 5z m-43 -21 c-3 -3 -12 -4 -19 -1 -8 3 -5 6 6 6 11 1 17 -2 13 -5z
m-180 -221 c-2 -16 -4 -5 -4 22 0 28 2 40 4 28 2 -13 2 -35 0 -50z m300 -35
c-3 -8 -6 -5 -6 6 -1 11 2 17 5 13 3 -3 4 -12 1 -19z m-157 2 c0 -5 -4 -10
-10 -10 -5 0 -10 5 -10 10 0 6 5 10 10 10 6 0 10 -4 10 -10z m-143 -32 c-3 -7
-5 -2 -5 12 0 14 2 19 5 13 2 -7 2 -19 0 -25z m0 -55 c-3 -10 -5 -4 -5 12 0
17 2 24 5 18 2 -7 2 -21 0 -30z"/>
<path d="M2068 2013 c7 -3 16 -2 19 1 4 3 -2 6 -13 5 -11 0 -14 -3 -6 -6z"/>
<path d="M974 1995 c-4 -9 -4 -134 -1 -278 4 -144 7 -454 7 -688 l0 -426 208
-5 c114 -3 214 -2 222 2 26 13 135 15 133 2 -2 -7 14 -11 42 -10 25 0 42 4 39
9 -3 5 10 9 28 8 28 0 30 -2 13 -10 -17 -8 -17 -9 5 -4 14 2 30 5 35 5 6 0 4
4 -4 9 -10 6 4 13 45 21 83 16 86 18 27 19 -29 1 -53 6 -53 11 0 6 34 10 83
10 56 0 77 3 67 10 -11 7 -1 10 35 11 28 1 53 1 58 0 4 0 7 4 7 9 0 6 -11 10
-25 10 -16 0 -25 6 -25 16 0 10 8 15 23 14 12 -1 91 -2 175 -1 149 1 153 2
147 21 -4 13 -2 20 7 20 10 0 9 3 -2 10 -13 8 -12 10 4 10 15 0 17 -6 14 -32
l-3 -33 112 6 c63 3 165 4 229 2 90 -2 118 0 130 11 19 19 18 23 -6 29 -11 3
-20 0 -21 -6 0 -7 -4 -3 -9 8 -5 11 -9 50 -9 88 -1 37 -4 67 -8 67 -5 0 -7
-38 -5 -85 l3 -85 -30 0 c-29 0 -43 21 -23 34 5 3 9 25 11 50 1 36 -2 45 -18
51 -16 5 -21 19 -26 80 -6 56 -11 75 -22 75 -10 0 -14 -11 -13 -37 1 -21 1
-56 0 -78 -1 -32 -3 -36 -10 -20 -6 14 -9 15 -10 5 0 -13 -2 -12 -10 1 -7 12
-27 17 -77 19 -163 6 -183 4 -183 -19 0 -31 -21 -81 -35 -81 -7 0 -15 15 -17
36 -4 33 -2 35 19 31 18 -3 23 0 21 12 -2 11 -16 17 -50 19 l-46 3 -6 112 c-3
62 -7 196 -9 299 -2 103 -5 190 -8 192 -2 2 -38 6 -79 9 -56 4 -65 3 -35 -3
30 -7 18 -8 -43 -4 -46 2 -106 2 -134 -2 l-50 -7 7 -330 c5 -224 4 -327 -3
-323 -6 3 -17 0 -25 -8 -12 -12 -15 7 -20 142 -4 86 -7 221 -7 298 0 120 -2
143 -16 148 -23 9 -24 8 -23 -21 0 -25 1 -26 9 -8 5 12 9 -78 9 -222 1 -143
-3 -244 -8 -248 -10 -5 -33 27 -30 42 1 4 0 17 -1 28 -1 15 -5 12 -18 -15
l-16 -35 -6 35 -7 35 -11 -29 c-9 -21 -10 -32 -1 -42 9 -11 8 -14 -5 -14 -9 0
-15 3 -14 8 0 4 -2 14 -5 22 -4 8 -8 47 -10 85 l-3 70 -2 -83 c-1 -57 -7 -88
-16 -98 -21 -20 -26 -18 -27 14 l0 27 -12 -25 c-11 -25 -11 -25 -15 9 -3 26
-6 31 -13 20 -7 -11 -9 -9 -9 9 0 13 4 21 9 17 5 -3 12 -1 16 5 3 5 -1 10 -9
10 -12 0 -16 11 -18 43 l-1 42 -4 -37 c-4 -32 -8 -38 -27 -38 -17 0 -26 9 -34
33 -9 24 -10 25 -7 6 5 -30 -16 -55 -40 -46 -12 5 -15 36 -18 164 l-3 158 -2
-162 c-2 -157 -3 -162 -22 -158 -11 2 -18 0 -15 -4 3 -5 -1 -11 -9 -14 -11 -5
-14 18 -15 126 -1 72 -4 133 -6 136 -3 2 -5 -45 -6 -105 0 -60 -4 -118 -9
-129 -5 -11 -9 -15 -9 -10 -1 6 -5 4 -10 -4 -20 -32 -28 62 -30 349 -1 162 -4
305 -8 318 -5 22 -5 22 26 5 l31 -18 2 -130 2 -130 3 128 4 127 29 -15 c23
-12 30 -23 31 -48 2 -29 2 -30 6 -5 l4 27 57 -34 57 -33 6 -84 5 -83 2 78 2
79 38 -22 c20 -13 51 -30 67 -40 17 -10 47 -27 68 -40 21 -12 40 -20 43 -17 3
2 -12 15 -33 28 -53 32 -697 432 -702 436 -2 2 -2 5 0 7 2 3 49 -24 104 -60
55 -35 127 -80 160 -100 82 -49 177 -108 292 -181 195 -123 214 -135 219 -130
3 2 -26 24 -63 47 -143 91 -268 174 -271 182 -2 4 -7 6 -12 3 -4 -2 -19 6 -34
20 -14 13 -26 22 -26 19 0 -3 -19 9 -42 28 -23 18 -42 32 -43 30 0 -2 -8 0
-17 3 -10 4 -15 12 -11 18 3 6 1 7 -6 3 -6 -4 -14 0 -17 8 -3 9 -9 14 -14 11
-4 -2 -22 9 -40 25 -37 33 -45 37 -35 18 4 -7 -3 -1 -15 14 -11 15 -27 25 -35
22 -7 -3 -18 4 -25 16 -6 11 -15 18 -21 15 -5 -4 -9 -2 -9 3 0 5 -11 17 -25
26 -23 15 -26 15 -31 1z m37 -190 c6 -5 15 -10 22 -10 7 0 15 -20 19 -45 7
-51 10 -190 4 -190 -3 0 -16 4 -30 10 -14 5 -26 7 -26 4 0 -3 14 -10 30 -15
l30 -11 -1 -161 c0 -100 -4 -154 -9 -142 -8 18 -9 18 -9 2 -1 -11 -7 -17 -18
-15 -16 3 -19 -9 -24 -87 -3 -49 -5 104 -5 340 0 237 1 408 3 380 2 -27 9 -54
14 -60z m109 -25 c0 -6 9 -10 20 -10 19 0 20 -8 21 -242 1 -347 -1 -370 -22
-337 -7 11 -11 11 -17 1 -6 -8 -13 -1 -25 23 -21 43 -24 165 -4 166 9 0 9 2 0
5 -9 4 -12 61 -13 215 0 206 0 209 20 199 11 -6 20 -15 20 -20z m110 -35 c0
-11 2 -165 6 -342 l6 -323 -26 0 c-14 0 -26 1 -26 3 -11 69 -11 77 2 77 9 0
10 3 2 8 -17 11 -21 569 -5 620 1 1 10 -3 21 -10 11 -7 19 -22 20 -33z m-101
-627 c1 -10 -3 -18 -8 -18 -14 0 -20 25 -14 51 6 22 7 22 14 3 4 -10 8 -27 8
-36z m301 -90 c0 -4 -7 -8 -15 -8 -8 0 -15 4 -15 8 0 5 7 9 15 9 8 0 15 -4 15
-9z m110 -109 c0 -6 -4 -7 -10 -4 -5 3 -10 11 -10 16 0 6 5 7 10 4 6 -3 10
-11 10 -16z m985 11 c3 -5 -1 -10 -10 -10 -9 0 -13 5 -10 10 3 6 8 10 10 10 2
0 7 -4 10 -10z m-305 -45 c0 -25 -4 -45 -9 -45 -11 0 -24 67 -16 80 14 23 25
7 25 -35z m140 32 c11 3 20 1 20 -5 0 -5 -8 -9 -17 -8 -14 1 -17 -5 -15 -24 2
-20 1 -22 -7 -10 -6 8 -10 26 -10 40 0 14 3 20 5 14 3 -7 14 -10 24 -7z m90
-9 c0 -16 -3 -19 -11 -11 -6 6 -8 16 -5 22 11 17 16 13 16 -11z m-341 -20 c0
-31 -1 -31 -10 -10 -5 13 -7 28 -3 33 10 16 14 9 13 -23z m292 -9 c-6 -16 -10
-18 -10 -7 -1 22 12 55 16 42 2 -6 -1 -22 -6 -35z m-104 -11 c-3 -8 -6 -5 -6
6 -1 11 2 17 5 13 3 -3 4 -12 1 -19z m80 0 c-3 -8 -6 -5 -6 6 -1 11 2 17 5 13
3 -3 4 -12 1 -19z m-747 2 c0 -5 -6 -10 -14 -10 -8 0 -18 5 -21 10 -3 6 3 10
14 10 12 0 21 -4 21 -10z m234 4 c27 -10 18 -21 -15 -16 -22 3 -27 7 -18 13
17 11 14 10 33 3z m-101 -11 c-7 -2 -21 -2 -30 0 -10 3 -4 5 12 5 17 0 24 -2
18 -5z m544 -80 c-3 -10 -5 -4 -5 12 0 17 2 24 5 18 2 -7 2 -21 0 -30z m273 9
c0 -14 -8 -19 -35 -20 -26 -1 -35 3 -35 14 0 11 6 15 19 11 10 -2 25 -1 32 4
19 12 19 12 19 -9z m-667 1 c3 -5 -14 -9 -37 -10 -29 -2 -37 0 -26 7 18 12 57
13 63 3z m574 -20 c-3 -3 -11 -2 -17 2 -9 6 -9 10 1 16 14 8 27 -7 16 -18z
m-371 8 c-3 -5 -16 -11 -28 -14 -22 -6 -22 -5 -4 8 22 17 40 20 32 6z m-246
-61 c0 -5 -7 -10 -15 -10 -8 0 -15 5 -15 10 0 6 7 10 15 10 8 0 15 -4 15 -10z
m-180 -60 c0 -5 -5 -10 -11 -10 -5 0 -7 5 -4 10 3 6 8 10 11 10 2 0 4 -4 4
-10z m-453 -26 c-3 -3 -12 -4 -19 -1 -8 3 -5 6 6 6 11 1 17 -2 13 -5z"/>
<path d="M1010 1410 c8 -5 22 -9 30 -9 10 0 8 3 -5 9 -27 12 -43 12 -25 0z"/>
<path d="M2204 1895 c0 -55 1 -76 3 -47 2 29 2 74 0 100 -2 26 -3 2 -3 -53z"/>
<path d="M1723 1954 c-4 -10 6 -27 25 -47 l31 -31 -3 27 c-3 30 -11 42 -29 42
-7 1 -11 6 -9 13 3 18 -8 15 -15 -4z"/>
<path d="M1691 1914 c0 -11 3 -14 6 -6 3 7 2 16 -1 19 -3 4 -6 -2 -5 -13z"/>
<path d="M1438 1903 c7 -3 16 -2 19 1 4 3 -2 6 -13 5 -11 0 -14 -3 -6 -6z"/>
<path d="M1762 1846 c7 -8 15 -12 17 -11 5 6 -10 25 -20 25 -5 0 -4 -6 3 -14z"/>
<path d="M2143 1633 c9 -2 25 -2 35 0 9 3 1 5 -18 5 -19 0 -27 -2 -17 -5z"/>
<path d="M2023 1623 c15 -2 37 -2 50 0 12 2 0 4 -28 4 -27 0 -38 -2 -22 -4z"/>
<path d="M1371 1604 c0 -11 3 -14 6 -6 3 7 2 16 -1 19 -3 4 -6 -2 -5 -13z"/>
<path d="M2143 1573 c9 -2 23 -2 30 0 6 3 -1 5 -18 5 -16 0 -22 -2 -12 -5z"/>
<path d="M2271 1525 c0 -5 6 -19 14 -29 8 -11 15 -15 15 -10 0 6 -7 19 -15 30
-8 10 -14 15 -14 9z"/>
<path d="M2184 1415 c0 -49 1 -71 3 -48 2 23 2 64 0 90 -2 26 -3 8 -3 -42z"/>
<path d="M1302 1440 c0 -14 2 -19 5 -12 2 6 2 18 0 25 -3 6 -5 1 -5 -13z"/>
<path d="M1502 1420 c0 -14 2 -19 5 -12 2 6 2 18 0 25 -3 6 -5 1 -5 -13z"/>
<path d="M780 1380 c0 -6 7 -10 15 -10 8 0 15 2 15 4 0 2 -7 6 -15 10 -8 3
-15 1 -15 -4z"/>
<path d="M2472 1086 c7 -8 15 -12 17 -11 5 6 -10 25 -20 25 -5 0 -4 -6 3 -14z"/>
<path d="M1561 1044 c0 -11 3 -14 6 -6 3 7 2 16 -1 19 -3 4 -6 -2 -5 -13z"/>
<path d="M3470 1004 c0 -17 -6 -36 -12 -43 -10 -11 -10 -13 0 -7 9 5 12 -4 11
-36 -1 -24 -3 -35 -6 -25 -2 9 -7 17 -10 17 -8 0 -32 -33 -33 -44 0 -6 7 -1
15 10 13 17 14 17 15 2 0 -10 5 -18 10 -18 6 0 10 -5 10 -11 0 -5 -4 -7 -10
-4 -5 3 -10 2 -10 -4 0 -5 4 -11 10 -13 5 -2 11 -24 12 -50 3 -46 4 -48 33
-48 25 0 30 4 30 24 0 13 -3 22 -7 19 -5 -2 -8 -11 -8 -19 0 -8 -7 -14 -15
-14 -12 0 -15 11 -13 46 1 39 4 45 20 41 11 -3 18 0 18 10 0 9 -8 13 -22 11
-22 -3 -23 0 -24 85 -1 48 -4 91 -8 94 -3 4 -6 -7 -6 -23z"/>
<path d="M2495 970 c-18 -8 -17 -9 7 -9 14 -1 35 -4 45 -7 16 -6 16 -5 -2 9
-23 19 -23 19 -50 7z"/>
<path d="M3520 906 c0 -8 -3 -23 -6 -33 -3 -10 2 -7 10 7 18 30 20 40 6 40 -5
0 -10 -6 -10 -14z"/>
<path d="M3350 883 c0 -7 -3 -12 -7 -12 -36 6 -45 -15 -10 -25 21 -6 21 -7 4
-20 -10 -8 -15 -20 -11 -29 5 -13 8 -14 18 -4 12 11 14 19 17 65 1 9 6 22 10
28 5 7 3 11 -6 11 -8 0 -15 -6 -15 -14z"/>
<path d="M3202 860 c0 -19 2 -27 5 -17 2 9 2 25 0 35 -3 9 -5 1 -5 -18z"/>
<path d="M3250 880 c0 -5 5 -10 10 -10 6 0 10 5 10 10 0 6 -4 10 -10 10 -5 0
-10 -4 -10 -10z"/>
<path d="M2870 870 c0 -5 10 -10 23 -10 18 0 19 2 7 10 -19 13 -30 13 -30 0z"/>
<path d="M2931 864 c0 -11 3 -14 6 -6 3 7 2 16 -1 19 -3 4 -6 -2 -5 -13z"/>
<path d="M3401 867 c-1 -10 -5 -15 -11 -12 -5 3 -10 -1 -10 -9 0 -11 9 -16 26
-16 20 0 24 3 17 13 -6 6 -13 19 -16 27 -4 12 -6 11 -6 -3z"/>
<path d="M2800 855 c-10 -12 -10 -15 3 -15 10 0 14 -6 11 -14 -3 -8 -1 -17 5
-20 18 -11 1 -34 -22 -30 -15 3 -13 1 6 -7 17 -7 27 -19 28 -32 1 -12 6 -2 12
22 8 34 8 46 -1 49 -28 9 1 19 43 15 58 -6 60 12 3 27 -24 6 -50 13 -59 16 -9
2 -22 -2 -29 -11z"/>
<path d="M3262 813 c-2 -40 0 -43 23 -43 21 0 25 4 24 28 -2 23 -2 24 -6 5 -7
-37 -31 -27 -36 15 l-4 37 -1 -42z"/>
<path d="M2752 813 c2 -10 10 -18 18 -18 8 0 16 8 18 18 2 12 -3 17 -18 17
-15 0 -20 -5 -18 -17z"/>
<path d="M3140 784 c0 -43 -1 -45 -27 -44 -68 5 -73 -18 -10 -48 l42 -20 -35
-6 c-19 -3 -80 -5 -135 -3 l-100 2 0 53 c1 28 -3 52 -7 52 -4 0 -8 -11 -8 -25
0 -14 -7 -28 -15 -31 -11 -5 -12 -10 -2 -24 6 -11 7 -23 3 -27 -5 -4 -11 -2
-13 5 -8 22 -20 12 -15 -13 4 -24 7 -25 91 -26 47 0 120 0 162 1 83 1 95 -7
83 -56 -6 -22 -4 -24 35 -24 l41 0 1 43 c1 23 4 32 6 19 8 -43 68 -62 193 -62
l110 0 0 43 c0 49 -13 67 -48 67 -13 0 -30 6 -37 14 -9 8 -41 14 -90 15 -42 1
-86 6 -98 10 -12 5 -25 9 -29 10 -5 0 -11 2 -15 3 -5 1 -23 2 -42 2 l-35 1 3
58 c1 31 0 57 -3 57 -3 0 -6 -21 -6 -46z m55 -91 c-16 -3 -33 -10 -37 -16 -5
-8 -8 -8 -8 -1 0 18 12 24 44 23 l31 -2 -30 -4z"/>
<path d="M3213 775 c0 -27 2 -38 4 -22 2 15 2 37 0 50 -2 12 -4 0 -4 -28z"/>
<path d="M3376 811 c-10 -15 32 -20 51 -5 16 12 15 13 -14 14 -17 0 -34 -4
-37 -9z"/>
<path d="M3008 763 c7 -3 16 -2 19 1 4 3 -2 6 -13 5 -11 0 -14 -3 -6 -6z"/>
<path d="M3378 763 c7 -3 16 -2 19 1 4 3 -2 6 -13 5 -11 0 -14 -3 -6 -6z"/>
<path d="M2038 653 c7 -3 16 -2 19 1 4 3 -2 6 -13 5 -11 0 -14 -3 -6 -6z"/>
<path d="M1990 640 c-8 -5 -10 -10 -5 -10 6 0 17 5 25 10 8 5 11 10 5 10 -5 0
-17 -5 -25 -10z"/>
<path d="M1898 613 c6 -2 18 -2 25 0 6 3 1 5 -13 5 -14 0 -19 -2 -12 -5z"/>
<path d="M1498 593 c7 -3 16 -2 19 1 4 3 -2 6 -13 5 -11 0 -14 -3 -6 -6z"/>
<path d="M1830 589 c0 -5 5 -7 10 -4 6 3 10 8 10 11 0 2 -4 4 -10 4 -5 0 -10
-5 -10 -11z"/>
<path d="M1999 588 c30 -7 47 -6 54 1 8 8 -4 11 -43 10 l-55 -1 44 -10z"/>
<path d="M2105 590 c-13 -6 -15 -9 -5 -9 8 0 22 4 30 9 18 12 2 12 -25 0z"/>
<path d="M2395 580 c-3 -5 -1 -10 4 -10 6 0 11 5 11 10 0 6 -2 10 -4 10 -3 0
-8 -4 -11 -10z"/>
<path d="M1610 552 c9 -3 4 -9 -15 -17 l-30 -13 38 -1 c23 -1 36 -5 32 -11 -4
-6 18 -10 59 -10 37 0 66 4 66 10 0 6 -10 10 -22 10 -36 0 -68 11 -62 21 3 5
-5 9 -18 9 -13 0 -32 2 -43 4 -11 2 -13 1 -5 -2z"/>
<path d="M1775 540 c28 -12 47 -12 40 0 -3 6 -18 10 -33 9 -24 0 -25 -1 -7 -9z"/>
<path d="M1968 529 c-8 -6 1 -9 25 -9 20 0 37 2 37 4 0 9 -50 12 -62 5z"/>
<path d="M1820 520 c-11 -7 -4 -10 26 -10 23 0 57 -2 75 -5 28 -4 26 -3 -11
10 -53 17 -70 18 -90 5z"/>
<path d="M3450 503 c8 -4 20 -13 27 -22 6 -9 15 -13 18 -9 11 10 -21 38 -42
37 -14 0 -15 -2 -3 -6z"/>
<path d="M3490 506 c0 -2 11 -6 25 -8 14 -3 25 -1 25 3 0 5 -11 9 -25 9 -14 0
-25 -2 -25 -4z"/>
<path d="M3400 491 c0 -5 7 -11 15 -15 8 -3 15 -1 15 3 0 5 -7 11 -15 15 -8 3
-15 1 -15 -3z"/>
<path d="M2138 368 c-8 -4 4 -8 30 -8 23 0 42 2 42 4 0 8 -60 12 -72 4z"/>
<path d="M3172 368 c4 -12 78 -31 87 -22 2 2 -2 10 -9 19 -15 18 -84 21 -78 3z"/>
<path d="M3455 371 l-60 -6 26 -20 c20 -16 37 -20 72 -17 42 4 47 7 47 28 0
13 -6 23 -12 22 -7 -1 -40 -4 -73 -7z"/>
<path d="M2005 330 c-3 -5 -2 -10 4 -10 5 0 13 5 16 10 3 6 2 10 -4 10 -5 0
-13 -4 -16 -10z"/>
<path d="M2666 264 c-6 -15 -4 -15 11 -3 10 7 20 15 22 16 2 2 -3 3 -11 3 -9
0 -19 -7 -22 -16z"/>
<path d="M2408 63 c7 -3 16 -2 19 1 4 3 -2 6 -13 5 -11 0 -14 -3 -6 -6z"/>
<path d="M1148 33 c7 -3 16 -2 19 1 4 3 -2 6 -13 5 -11 0 -14 -3 -6 -6z"/>
</g>
</svg>
