<svg xmlns="http://www.w3.org/2000/svg" viewBox="0 0 36 36"><defs><style>.cls-1,.cls-2,.cls-3{fill:#f4a950;}.cls-2{stroke:#fff;}.cls-2,.cls-3,.cls-4,.cls-5,.cls-6{stroke-miterlimit:10;}.cls-2,.cls-6{stroke-width:0.25px;}.cls-3,.cls-4,.cls-5,.cls-6{stroke:#f4a950;}.cls-4,.cls-5,.cls-6{fill:none;}.cls-5{stroke-width:0.5px;}</style></defs><g id="Layer_1" data-name="Layer 1"><path class="cls-1" d="M7.09,22.89H5.29a3.59,3.59,0,0,0-1.4,1.8h-.4v.81H8.7v-.81H8.5s-1-1.8-1.41-1.8"/></g><g id="Layer_4" data-name="Layer 4"><rect class="cls-2" x="5.29" y="22.09" width="1.8" height="3.01" rx="0.9"/><line class="cls-3" x1="1" y1="35" x2="35" y2="35"/></g><g id="Layer_6" data-name="Layer 6"><polyline class="cls-4" points="11.5 34.5 11.5 34.23 11.5 1.5 24.5 1.5 26.5 6.5 26.5 34.5"/><rect class="cls-5" x="13.5" y="3.5" width="2" height="5"/><rect class="cls-5" x="17.5" y="3.5" width="2" height="5"/><rect class="cls-5" x="13.5" y="10.5" width="2" height="5"/><rect class="cls-5" x="17.5" y="10.5" width="2" height="5"/><rect class="cls-5" x="13.5" y="17.5" width="2" height="5"/><rect class="cls-5" x="17.5" y="17.5" width="2" height="5"/><rect class="cls-5" x="13.5" y="24.5" width="2" height="5"/><rect class="cls-5" x="17.5" y="24.5" width="2" height="5"/><rect class="cls-5" x="21.5" y="6.5" width="2" height="5"/><rect class="cls-5" x="21.5" y="14.5" width="2" height="5"/><rect class="cls-5" x="21.5" y="22.5" width="2" height="5"/><rect class="cls-6" x="20.5" y="28.5" width="5" height="6"/><polyline class="cls-5" points="26.5 7.62 34.5 7.5 34.5 34.5"/><rect class="cls-5" x="28.5" y="9.5" width="2" height="2"/><rect class="cls-5" x="31.5" y="12.5" width="2" height="2"/><rect class="cls-5" x="31.5" y="18.5" width="2" height="2"/><rect class="cls-5" x="28.5" y="15.5" width="2" height="2"/><rect class="cls-5" x="31.5" y="24.5" width="2" height="2"/><rect class="cls-5" x="28.5" y="21.5" width="2" height="2"/><rect class="cls-5" x="31.5" y="29.5" width="2" height="2"/><rect class="cls-5" x="28.5" y="26.5" width="2" height="2"/><rect class="cls-6" x="27.5" y="29.5" width="3" height="5"/></g><g id="Layer_3" data-name="Layer 3"><path class="cls-1" d="M3.89,26.1a.88.88,0,0,0,.4,1.2s.2,1.8,1.8,2c0,0,1.41,0,1.81-2,0,0,1-.4.4-1.2Z"/></g><g id="Layer_2" data-name="Layer 2"><path class="cls-1" d="M4.39,29.8l.4-.6a1.88,1.88,0,0,0,2.61,0l.4.6s2.2-1,2.2,2.81v.8H2v-.8S1.79,29,4.39,29.8Z"/></g></svg>