<svg xmlns="http://www.w3.org/2000/svg" viewBox="0 0 36 36"><defs><style>.cls-1{fill:#f4a950;}.cls-2{fill:#fff;}.cls-3{font-size:10px;fill:#fffefd;font-family:MyriadPro-Regular, Myriad Pro;}</style></defs><g id="Layer_1" data-name="Layer 1"><path class="cls-1" d="M3,1.13H4A.87.87,0,0,1,4.87,2V34a.88.88,0,0,1-.88.88H3A.88.88,0,0,1,2.12,34V2A.88.88,0,0,1,3,1.13Z"/><path class="cls-2" d="M4,1.25A.76.76,0,0,1,4.75,2V34a.76.76,0,0,1-.75.75H3A.76.76,0,0,1,2.25,34V2A.76.76,0,0,1,3,1.25H4M4,1H3A1,1,0,0,0,2,2V34a1,1,0,0,0,1,1H4a1,1,0,0,0,1-1V2A1,1,0,0,0,4,1Z"/></g><g id="Layer_3" data-name="Layer 3"><path class="cls-1" d="M1.5,6.88a1.38,1.38,0,0,1,0-2.75h32a1.38,1.38,0,1,1,0,2.75Z"/><path class="cls-2" d="M33.5,4.25a1.25,1.25,0,0,1,0,2.5H1.5a1.25,1.25,0,0,1,0-2.5h32m0-.25H1.5a1.5,1.5,0,0,0,0,3h32a1.5,1.5,0,0,0,0-3Z"/><path class="cls-1" d="M8.5,13.88a.37.37,0,0,1-.37-.38v-8a.36.36,0,0,1,.37-.37.37.37,0,0,1,.38.37v8A.38.38,0,0,1,8.5,13.88Z"/><path class="cls-2" d="M8.5,5.25a.25.25,0,0,1,.25.25v8a.25.25,0,0,1-.5,0v-8a.25.25,0,0,1,.25-.25M8.5,5a.5.5,0,0,0-.5.5v8a.5.5,0,0,0,1,0v-8A.5.5,0,0,0,8.5,5Z"/><path class="cls-1" d="M29.5,13.88a.37.37,0,0,1-.37-.38v-8a.36.36,0,0,1,.37-.37.37.37,0,0,1,.38.37v8A.38.38,0,0,1,29.5,13.88Z"/><path class="cls-2" d="M29.5,5.25a.25.25,0,0,1,.25.25v8a.25.25,0,0,1-.5,0v-8a.25.25,0,0,1,.25-.25m0-.25a.5.5,0,0,0-.5.5v8a.5.5,0,0,0,1,0v-8a.5.5,0,0,0-.5-.5Z"/><path class="cls-1" d="M10,22.88a4.88,4.88,0,0,1,0-9.75H28a4.88,4.88,0,1,1,0,9.75Z"/><path class="cls-2" d="M28,13.25a4.75,4.75,0,0,1,0,9.5H10a4.75,4.75,0,0,1,0-9.5H28M28,13H10a5,5,0,0,0-5,5H5a5,5,0,0,0,5,5H28a5,5,0,0,0,5-5h0a5,5,0,0,0-5-5Z"/></g><g id="Layer_4" data-name="Layer 4"><text class="cls-3" transform="translate(7.96 21.21)">RENT</text></g><g id="Layer_2" data-name="Layer 2"><rect class="cls-1" y="35" width="36" height="1"/><polygon class="cls-1" points="36 35 0 35 0 36 36 36 36 35 36 35"/></g></svg>