<svg xmlns="http://www.w3.org/2000/svg" viewBox="0 0 36 36"><defs><style>.cls-1,.cls-2{fill:none;stroke:#f4a950;stroke-miterlimit:10;}.cls-1{stroke-width:0.75px;}</style></defs><g id="Layer_1" data-name="Layer 1"><line class="cls-1" y1="35.96" x2="37" y2="35.96"/><polyline class="cls-2" points="1.16 35.96 1.16 1.54 13.6 8.96 13.6 35.43"/><line class="cls-2" x1="3.81" y1="8.96" x2="9.25" y2="8.96"/><line class="cls-2" x1="3.26" y1="12.13" x2="11.97" y2="12.13"/><line class="cls-2" x1="3.26" y1="15.31" x2="11.97" y2="15.31"/><line class="cls-2" x1="3.26" y1="18.49" x2="11.97" y2="18.49"/><line class="cls-2" x1="3.26" y1="21.66" x2="11.97" y2="21.66"/><line class="cls-2" x1="3.26" y1="24.84" x2="11.97" y2="24.84"/><line class="cls-2" x1="3.26" y1="28.01" x2="11.97" y2="28.01"/><line class="cls-2" x1="3.26" y1="31.19" x2="11.97" y2="31.19"/></g><g id="Layer_2" data-name="Layer 2"><polyline class="cls-2" points="13.6 25.55 26.66 25.55 26.66 35.43"/><line class="cls-2" x1="20.13" y1="25.55" x2="20.13" y2="35.96"/></g><g id="Layer_3" data-name="Layer 3"><polyline class="cls-2" points="26.66 25.9 16.87 12.13 35.37 1.54 35.37 35.96"/><line class="cls-2" x1="29.93" y1="6.84" x2="33.19" y2="6.84"/><line class="cls-2" x1="25.57" y1="8.96" x2="33.19" y2="8.96"/><line class="cls-2" x1="21.22" y1="12.13" x2="33.19" y2="12.13"/><line class="cls-2" x1="22.31" y1="15.31" x2="33.19" y2="15.31"/><line class="cls-2" x1="24.49" y1="18.49" x2="33.19" y2="18.49"/><line class="cls-2" x1="26.66" y1="21.66" x2="33.19" y2="21.66"/><line class="cls-2" x1="28.84" y1="24.84" x2="33.19" y2="24.84"/><line class="cls-2" x1="28.84" y1="28.01" x2="33.19" y2="28.01"/><line class="cls-2" x1="28.84" y1="31.19" x2="33.19" y2="31.19"/><line class="cls-2" x1="7.62" y1="31.19" x2="7.62" y2="35.96"/><line class="cls-1" x1="6.7" y1="4.85" x2="29.29" y2="4.85"/></g></svg>